<?xml version="1.0" standalone="no"?>
<!DOCTYPE svg PUBLIC "-//W3C//DTD SVG 20010904//EN"
 "http://www.w3.org/TR/2001/REC-SVG-20010904/DTD/svg10.dtd">
<svg version="1.0" xmlns="http://www.w3.org/2000/svg"
 width="403.000000pt" height="403.000000pt" viewBox="0 0 403.000000 403.000000"
 preserveAspectRatio="xMidYMid meet">
<metadata>
Created by potrace 1.14, written by Peter Selinger 2001-2017
</metadata>
<g transform="translate(0.000000,403.000000) scale(0.100000,-0.100000)"
fill="#000000" stroke="none">
<path d="M1660 3994 c-8 -3 -22 -8 -30 -11 -8 -3 -26 -7 -40 -9 -23 -2 -58
-10 -70 -14 -3 -1 -9 -2 -14 -1 -5 1 -16 -1 -25 -5 -9 -4 -23 -8 -32 -10 -9
-2 -27 -8 -40 -13 -13 -5 -27 -8 -30 -7 -3 0 -13 -5 -22 -13 -10 -7 -17 -10
-17 -5 0 5 -4 5 -8 -1 -11 -16 -73 -46 -82 -40 -4 3 -11 -2 -14 -11 -3 -8 -10
-12 -16 -9 -5 3 -10 1 -10 -4 0 -6 -6 -11 -13 -11 -7 0 -36 -15 -65 -34 -28
-19 -52 -33 -52 -31 0 5 -31 -19 -65 -50 -13 -11 -29 -21 -36 -23 -8 -2 -20
-11 -27 -20 -7 -9 -18 -16 -23 -14 -5 1 -9 -5 -9 -14 0 -8 -3 -13 -7 -11 -9 5
-34 -18 -33 -30 0 -5 -4 -8 -8 -8 -11 0 -72 -67 -72 -78 0 -4 -4 -6 -9 -3 -5
4 -19 -9 -30 -27 -11 -19 -32 -46 -45 -60 -14 -15 -20 -27 -14 -27 6 0 -1 -9
-16 -21 -14 -11 -24 -25 -20 -30 3 -5 -2 -12 -10 -15 -9 -3 -13 -10 -10 -15 3
-5 1 -9 -3 -9 -5 0 -19 -25 -32 -55 -13 -30 -28 -55 -32 -55 -5 0 -9 -6 -9
-13 0 -8 -6 -27 -14 -43 -13 -25 -35 -77 -41 -94 -10 -30 -18 -49 -31 -73 -8
-16 -12 -33 -8 -38 3 -5 1 -9 -5 -9 -6 0 -8 -7 -5 -15 4 -8 1 -15 -4 -15 -6 0
-9 -9 -7 -20 2 -11 0 -20 -5 -20 -4 0 -7 -11 -6 -25 2 -15 -1 -22 -7 -18 -6 4
-8 0 -4 -10 3 -8 0 -18 -7 -20 -7 -3 -12 -20 -11 -41 1 -20 -1 -36 -5 -36 -3
0 -6 -16 -5 -35 1 -19 -1 -35 -6 -35 -4 0 -8 -8 -8 -17 -1 -52 -9 -134 -13
-139 -3 -3 -2 -21 2 -40 5 -20 4 -34 -2 -34 -5 0 -6 -5 -2 -12 9 -14 9 -311 1
-325 -4 -6 -4 -13 -1 -16 6 -5 16 -111 16 -149 -1 -10 3 -18 8 -18 5 0 7 -9 5
-20 -2 -11 1 -22 6 -25 5 -4 7 -11 4 -16 -4 -5 -3 -15 2 -21 8 -13 13 -33 15
-55 1 -7 5 -13 10 -13 5 0 7 -9 3 -19 -3 -10 0 -25 7 -32 7 -8 14 -23 14 -34
2 -32 9 -59 17 -72 5 -7 6 -17 3 -21 -3 -5 2 -18 12 -28 10 -10 18 -26 19 -34
1 -24 15 -60 22 -60 3 0 12 -15 20 -33 8 -17 27 -51 43 -74 15 -23 28 -46 28
-52 0 -6 5 -11 10 -11 6 0 10 -5 10 -11 0 -7 10 -20 22 -30 11 -11 18 -19 14
-19 -7 0 4 -15 41 -54 12 -13 19 -27 16 -30 -4 -3 -1 -6 6 -6 7 0 10 -3 8 -7
-6 -10 19 -34 27 -26 3 4 6 -1 6 -10 0 -10 4 -17 8 -17 5 0 15 -11 22 -25 7
-13 17 -22 21 -20 4 3 10 -3 13 -13 4 -10 18 -25 31 -32 14 -7 25 -20 25 -27
0 -8 4 -11 10 -8 5 3 10 2 10 -2 0 -5 14 -17 30 -26 17 -10 30 -25 30 -34 0
-9 3 -14 6 -10 5 5 33 -15 70 -50 7 -7 17 -13 21 -13 5 0 18 -8 29 -19 19 -17
108 -71 119 -71 3 0 28 -11 57 -25 28 -14 58 -25 65 -25 7 0 13 -4 13 -10 0
-5 7 -7 15 -4 8 4 15 1 15 -6 0 -6 4 -8 10 -5 5 3 30 -3 55 -14 25 -11 43 -15
39 -10 -4 6 5 3 20 -6 14 -10 26 -13 26 -9 0 5 4 3 8 -3 5 -7 27 -14 50 -15
23 -1 42 -4 42 -7 0 -3 14 -6 30 -7 17 -1 30 3 30 9 0 5 7 4 15 -3 17 -14 161
-21 186 -8 9 4 19 4 23 1 12 -12 36 -12 36 0 0 8 3 8 8 2 8 -11 142 -14 142
-3 0 4 7 5 15 2 8 -4 22 -1 30 6 10 8 15 9 15 1 0 -7 8 -8 23 -3 12 5 28 7 35
6 6 -1 17 -2 23 -3 8 -1 8 -6 -1 -16 -9 -10 -9 -15 -1 -15 6 0 11 -14 11 -31
0 -21 4 -28 13 -23 7 5 6 0 -3 -11 -12 -15 -12 -17 -1 -10 11 6 13 4 8 -8 -3
-10 -2 -17 3 -17 6 0 9 -3 8 -8 -3 -15 15 -62 24 -62 5 0 7 -4 3 -10 -3 -5 4
-19 15 -30 11 -11 18 -25 15 -30 -3 -5 4 -11 15 -15 11 -3 20 -11 20 -16 0
-11 54 -69 64 -69 7 0 23 -12 56 -42 10 -9 27 -19 39 -23 11 -3 28 -13 36 -21
9 -10 15 -11 15 -4 0 7 7 5 16 -5 9 -9 23 -14 31 -11 7 3 16 -1 19 -8 3 -8 14
-12 26 -8 14 3 19 1 14 -6 -4 -7 0 -10 11 -7 10 1 36 -3 58 -11 50 -17 58 -17
49 -1 -5 7 -1 7 10 -2 15 -13 19 -13 27 0 5 8 9 9 9 3 0 -13 39 -12 59 0 10 7
13 5 9 -5 -5 -12 8 -14 73 -13 44 1 82 -2 85 -8 3 -5 15 -2 27 9 12 10 17 12
12 4 -6 -11 -4 -13 8 -8 10 4 17 1 17 -6 0 -7 3 -8 8 -2 8 12 72 15 72 4 0 -5
11 -4 25 1 17 6 25 6 25 -1 0 -6 6 -7 13 -2 17 10 37 13 37 4 0 -4 7 -8 15 -8
8 0 15 3 15 6 0 6 74 13 133 13 15 0 27 5 27 10 0 5 4 7 9 3 5 -3 16 3 23 14
14 20 16 129 3 151 -5 9 -4 11 3 6 8 -5 12 1 12 14 0 14 -4 19 -12 14 -10 -5
-10 -4 -1 6 6 7 9 19 6 27 -3 8 0 19 8 24 9 5 10 9 2 9 -7 0 -10 12 -8 30 3
21 1 28 -7 24 -7 -5 -8 -2 -2 7 12 20 15 121 3 114 -5 -4 -6 -11 -3 -17 5 -7
2 -8 -5 -4 -9 6 -9 12 3 24 11 13 12 22 4 36 -8 14 -7 17 1 12 16 -10 14 6 -5
32 -12 18 -13 23 -2 27 10 4 18 60 8 60 -1 0 -3 10 -4 22 -1 12 1 20 5 17 4
-2 7 5 6 16 -1 11 -5 20 -9 20 -4 0 -8 5 -8 11 0 6 7 8 16 5 14 -5 15 -4 5 8
-7 8 -14 30 -16 48 -3 24 -2 29 5 18 7 -11 9 -6 7 18 -2 17 -7 35 -12 40 -5 4
-5 1 0 -7 6 -10 4 -12 -5 -6 -10 6 -10 11 3 20 20 14 23 30 5 19 -10 -6 -10
-4 0 8 11 14 9 17 -15 22 -15 2 -50 3 -78 0 -27 -3 -58 -5 -68 -5 -9 0 -15 -4
-13 -8 3 -4 -7 -6 -22 -6 -15 1 -37 -4 -48 -11 -12 -7 -25 -10 -29 -6 -10 10
-29 9 -37 -3 -5 -6 -8 -5 -8 3 0 9 -5 10 -17 3 -10 -5 -26 -5 -40 0 -15 6 -23
5 -23 -2 0 -8 -5 -7 -15 1 -12 10 -15 10 -15 -1 0 -11 -2 -11 -9 0 -8 12 -12
12 -24 2 -13 -10 -17 -9 -26 6 -6 10 -11 13 -11 6 0 -13 -40 -5 -40 9 0 5 -4
6 -10 3 -5 -3 -10 0 -10 7 0 18 38 40 53 32 7 -4 9 -4 5 1 -9 10 17 35 37 35
9 0 14 3 12 7 -3 5 1 14 9 21 8 7 14 10 14 7 0 -3 11 2 25 11 14 9 23 19 21
23 -6 9 21 31 28 23 4 -3 4 2 0 12 -5 13 -4 17 4 12 7 -4 14 3 18 19 3 14 11
22 17 18 6 -4 8 0 4 11 -4 9 -3 15 1 13 4 -3 13 1 20 9 10 11 10 14 0 14 -7 0
-2 7 10 16 14 9 21 22 18 31 -3 8 -1 11 4 8 6 -3 10 1 10 10 0 10 5 13 12 9 8
-5 9 -2 5 9 -3 10 -2 17 4 17 6 0 7 5 4 10 -3 6 -1 10 5 10 6 0 8 5 4 11 -3 6
-3 14 2 18 24 17 45 79 22 65 -7 -4 -8 -3 -4 5 4 6 12 9 17 6 8 -6 13 8 10 28
0 4 4 7 10 7 5 0 7 5 4 10 -3 5 -1 10 6 10 7 0 9 3 6 7 -4 3 1 12 11 20 9 8
12 12 5 9 -8 -5 -8 0 0 18 7 13 15 22 18 20 4 -2 6 4 4 13 -1 10 2 24 8 31 5
6 6 12 2 12 -4 0 -2 7 5 15 6 8 9 19 5 25 -3 5 -1 10 5 10 7 0 10 7 6 15 -3 8
-1 15 4 15 6 0 10 13 10 28 0 15 6 34 13 41 10 11 9 12 -3 6 -11 -6 -10 -3 2
11 14 16 15 23 6 32 -9 9 -9 12 3 13 9 0 6 4 -6 9 -19 8 -19 9 -1 9 14 1 17 7
14 26 -3 14 -1 25 4 25 5 0 9 10 8 23 -3 37 0 48 11 41 8 -4 8 0 0 15 -8 15
-9 21 -1 21 6 0 9 4 6 9 -3 4 -1 22 3 39 6 20 5 34 -2 42 -9 10 -9 11 1 6 15
-9 15 -5 2 28 -8 21 -7 24 8 19 14 -6 15 -4 4 9 -8 10 -10 31 -7 58 4 30 2 46
-7 52 -7 4 -8 8 -3 8 13 0 14 189 1 209 -6 9 -5 12 2 7 9 -6 9 12 0 102 -1 6
-6 12 -12 12 -6 0 -4 5 4 10 10 6 11 10 2 10 -6 0 -11 3 -11 8 4 23 -2 62 -9
58 -4 -3 -7 8 -6 25 1 16 -2 29 -7 29 -4 0 -5 7 -2 17 4 10 2 14 -4 10 -6 -4
-9 3 -7 18 1 14 -2 27 -7 31 -5 3 -7 10 -4 15 4 5 3 15 -2 22 -4 6 -9 18 -10
25 -6 23 -10 37 -22 65 -6 16 -9 33 -5 38 3 5 0 9 -6 9 -7 0 -10 7 -6 15 3 8
-2 21 -10 29 -8 9 -16 29 -17 46 -2 28 -9 35 -30 31 -5 -1 -6 3 -2 9 3 6 11 7
17 4 12 -7 -22 48 -35 57 -5 3 -8 10 -7 15 3 17 -45 104 -57 104 -7 0 -10 7
-7 15 4 8 1 15 -5 15 -6 0 -11 5 -11 11 0 6 -13 24 -30 39 -17 15 -30 33 -30
39 0 6 -13 23 -29 38 -15 16 -33 38 -40 51 -7 12 -16 20 -22 17 -8 -5 -11 1
-8 21 0 3 -10 15 -23 26 -13 11 -22 25 -20 30 1 5 -2 7 -7 3 -11 -6 -45 23
-54 46 -4 10 -6 10 -6 2 -1 -7 -20 5 -42 27 -23 22 -46 40 -51 40 -5 0 -6 5
-2 12 4 6 3 8 -4 4 -6 -3 -17 1 -25 9 -9 8 -20 15 -26 15 -6 0 -11 4 -11 10 0
5 -6 7 -14 4 -7 -3 -16 2 -19 10 -4 9 -13 16 -22 16 -8 0 -15 5 -15 11 0 5 -4
8 -9 4 -5 -3 -12 -1 -16 5 -4 6 -11 7 -17 4 -7 -4 -8 -2 -4 4 4 7 -8 15 -33
22 -22 6 -41 15 -43 20 -2 5 -14 11 -28 14 -14 2 -27 5 -30 6 -3 2 -8 2 -12 1
-5 0 -8 4 -8 10 0 5 -5 7 -10 4 -6 -4 -17 -2 -24 4 -7 6 -23 13 -37 15 -13 3
-24 5 -24 6 0 2 -16 6 -55 14 -14 3 -37 8 -52 12 -15 3 -30 4 -32 2 -2 -2 -13
5 -24 15 -15 14 -21 15 -25 5 -4 -10 -8 -10 -16 2 -6 8 -11 11 -11 6 0 -5 -6
-3 -13 3 -8 6 -16 8 -20 5 -8 -8 -57 -12 -62 -5 -4 8 -503 12 -525 5z m375
-873 c-3 -5 -1 -12 5 -16 5 -3 10 0 10 7 0 10 2 10 9 0 4 -8 12 -13 17 -13 25
2 53 -16 91 -57 23 -24 40 -49 37 -53 -3 -5 0 -9 6 -9 7 0 9 -7 6 -16 -3 -8
-2 -12 4 -9 6 3 10 -1 10 -9 0 -8 9 -21 21 -29 14 -11 17 -17 9 -22 -7 -4 -8
-10 -4 -14 5 -3 18 -17 29 -31 19 -23 19 -24 1 -10 -18 14 -19 14 -7 -7 6 -13
15 -23 19 -23 4 0 8 -10 9 -23 2 -22 9 -58 14 -67 1 -3 3 -9 4 -15 2 -5 4 -12
5 -15 1 -3 4 -23 6 -45 3 -49 7 -66 18 -84 6 -9 5 -12 -1 -8 -5 4 -9 -42 -8
-121 1 -70 -2 -135 -7 -144 -5 -10 -4 -19 3 -23 5 -4 8 -19 4 -33 -3 -15 -8
-37 -10 -49 -3 -13 -7 -32 -9 -43 -3 -12 -1 -18 5 -14 9 5 2 -44 -7 -55 -2 -2
4 -10 14 -18 14 -11 14 -12 1 -7 -12 4 -16 -1 -15 -18 1 -13 -5 -29 -14 -36
-8 -8 -10 -11 -3 -8 15 8 27 -10 13 -19 -8 -5 -7 -11 1 -21 6 -8 7 -14 2 -14
-5 0 -10 -7 -10 -15 0 -8 4 -15 8 -15 5 0 4 -12 -1 -26 -8 -19 -7 -23 3 -18 9
6 9 4 1 -7 -5 -8 -10 -23 -9 -34 0 -11 -3 -32 -7 -47 -4 -19 -3 -28 5 -28 8 0
9 -3 1 -8 -17 -11 -25 -42 -11 -43 9 0 9 -2 0 -6 -7 -2 -13 -13 -13 -23 0 -10
-4 -21 -9 -25 -6 -3 -8 -14 -6 -25 2 -12 0 -18 -6 -15 -5 4 -14 -7 -20 -24 -6
-17 -20 -33 -31 -36 -11 -4 -17 -13 -14 -20 3 -9 0 -12 -10 -8 -7 3 -14 0 -14
-6 0 -6 -15 -18 -32 -28 -43 -22 -201 -24 -238 -3 -25 14 -31 16 -50 19 -5 0
-10 8 -10 17 0 11 -6 15 -20 11 -11 -3 -23 -1 -26 4 -3 5 -10 6 -16 3 -7 -4
-8 -2 -4 4 4 7 -4 23 -18 37 -14 14 -22 25 -19 25 3 0 -4 8 -15 19 -12 10 -22
26 -22 35 0 10 -4 15 -9 12 -4 -3 -7 5 -6 19 2 14 -3 26 -13 30 -14 5 -14 7
-2 15 8 6 10 10 4 10 -14 0 -30 39 -28 68 1 12 -4 22 -10 22 -6 0 -4 5 4 10 8
5 10 10 3 10 -6 0 -9 9 -6 20 3 11 1 20 -4 20 -5 0 -10 21 -12 48 -1 26 -6 51
-11 56 -6 6 -6 14 1 22 7 8 6 14 -2 20 -8 5 -9 3 -4 -6 6 -9 4 -11 -4 -5 -9 5
-10 10 -2 18 7 7 7 16 0 29 -5 10 -7 18 -3 18 3 0 1 6 -5 14 -13 16 -11 37 4
48 6 5 6 8 -2 8 -8 0 -11 12 -8 33 10 89 17 135 25 165 5 20 5 32 -1 32 -6 0
-7 5 -3 12 11 18 13 68 2 68 -6 0 -5 7 2 15 10 12 10 15 0 15 -10 0 -10 3 -1
14 8 10 9 16 1 21 -6 4 -7 13 -1 23 4 9 6 22 4 29 -2 6 1 15 8 19 8 5 9 3 4
-6 -6 -9 -4 -11 4 -6 9 6 8 13 -6 28 -12 13 -13 18 -4 16 9 -2 15 7 17 22 3
26 8 54 18 106 3 17 12 47 20 66 9 20 12 39 8 43 -4 5 -1 5 6 1 11 -6 18 19
13 47 -1 5 3 6 9 2 9 -6 15 8 11 29 -1 5 5 6 14 2 9 -3 14 -2 10 3 -7 12 5 42
15 36 11 -7 22 24 13 37 -3 7 -1 8 5 4 7 -4 12 -2 12 3 0 6 6 11 14 11 8 0 18
4 21 10 3 6 -1 7 -12 4 -10 -3 -4 3 12 12 17 10 35 18 40 19 6 0 20 6 33 13
12 7 22 9 22 5 0 -4 5 -1 10 7 7 11 10 11 10 2 0 -8 5 -10 13 -5 6 4 22 7 34
8 12 0 25 3 29 8 10 10 16 9 9 -2z"/>
<path d="M3565 590 c3 -5 8 -10 11 -10 2 0 4 5 4 10 0 6 -5 10 -11 10 -5 0 -7
-4 -4 -10z"/>
</g>
</svg>
